# xmcd
#
# Track frame offsets:
# 150
# 12673
# 31017
# 45262
# 61011
# 77097
# 95625
# 112619
# 133341
# 148509
# 165579
#
# Disc length: 2422 seconds
#
# Revision: 0
# Processed by: cddbd v1.4PL0 Copyright (c) Steve Scherf et al.
# Submitted via: Audion 3.0.2 (http://www.panic.com/audion/)
#
DISCID=8109740b
DTITLE=Shout Out Louds - Howl Howl Gaff Gaff
DYEAR=2003
DGENRE=Pop
TTITLE0=The Comeback
TTITLE1=Very Loud
TTITLE2=Shut Your Eyes
TTITLE3=Please Please Please
TTITLE4=There's Nothing
TTITLE5=Sound Is the Word
TTITLE6=100 Degrees
TTITLE7=Wish I Was Dead
TTITLE8=End Up Behind
TTITLE9=Never Ever
TTITLE10=My Friend and the Ink on His Fingers
EXTD=
EXTT0=
EXTT1=
EXTT2=
EXTT3=
EXTT4=
EXTT5=
EXTT6=
EXTT7=
EXTT8=
EXTT9=
EXTT10=
PLAYORDER=
